<mxfile host="Electron" agent="Mozilla/5.0 (Windows NT 10.0; Win64; x64) AppleWebKit/537.36 (KHTML, like Gecko) draw.io/28.1.2 Chrome/138.0.7204.243 Electron/37.4.0 Safari/537.36" version="28.1.2">
  <diagram name="Page-1" id="L0p5QhvZgQNt1ibyMBrl">
    <mxGraphModel dx="1188" dy="708" grid="1" gridSize="10" guides="1" tooltips="1" connect="1" arrows="1" fold="1" page="1" pageScale="1" pageWidth="850" pageHeight="1100" math="0" shadow="0">
      <root>
        <mxCell id="0" />
        <mxCell id="1" parent="0" />
        <mxCell id="U4IghfBn-vNY0UKqWCL6-1" value="Bronze Layer" style="rounded=0;whiteSpace=wrap;html=1;fillColor=#ffe6cc;strokeColor=#d79b00;" vertex="1" parent="1">
          <mxGeometry x="355" y="210" width="120" height="60" as="geometry" />
        </mxCell>
        <mxCell id="U4IghfBn-vNY0UKqWCL6-2" value="Talk to Source System Experts" style="rounded=0;whiteSpace=wrap;html=1;" vertex="1" parent="1">
          <mxGeometry x="60" y="300" width="310" height="50" as="geometry" />
        </mxCell>
        <mxCell id="U4IghfBn-vNY0UKqWCL6-4" value="Analyzing" style="rounded=0;whiteSpace=wrap;html=1;strokeColor=#d79b00;fillColor=#ffe6cc;" vertex="1" parent="1">
          <mxGeometry x="155" y="290" width="120" height="20" as="geometry" />
        </mxCell>
        <mxCell id="U4IghfBn-vNY0UKqWCL6-5" value="Data Ingestion" style="rounded=0;whiteSpace=wrap;html=1;" vertex="1" parent="1">
          <mxGeometry x="490" y="300" width="190" height="60" as="geometry" />
        </mxCell>
        <mxCell id="U4IghfBn-vNY0UKqWCL6-6" value="Coding" style="rounded=0;whiteSpace=wrap;html=1;strokeColor=#d79b00;fillColor=#ffe6cc;" vertex="1" parent="1">
          <mxGeometry x="525" y="290" width="120" height="20" as="geometry" />
        </mxCell>
        <mxCell id="U4IghfBn-vNY0UKqWCL6-7" value="Data Completeness &amp;amp;&lt;div&gt;Schema Checks&lt;/div&gt;" style="rounded=0;whiteSpace=wrap;html=1;" vertex="1" parent="1">
          <mxGeometry x="490" y="440" width="190" height="60" as="geometry" />
        </mxCell>
        <mxCell id="U4IghfBn-vNY0UKqWCL6-8" value="Validating" style="rounded=0;whiteSpace=wrap;html=1;strokeColor=#d79b00;fillColor=#ffe6cc;" vertex="1" parent="1">
          <mxGeometry x="525" y="430" width="120" height="20" as="geometry" />
        </mxCell>
        <mxCell id="U4IghfBn-vNY0UKqWCL6-9" value="Data Documentating&lt;div&gt;Versioning in GIT&lt;/div&gt;" style="rounded=0;whiteSpace=wrap;html=1;" vertex="1" parent="1">
          <mxGeometry x="490" y="570" width="190" height="60" as="geometry" />
        </mxCell>
        <mxCell id="U4IghfBn-vNY0UKqWCL6-10" value="Docs &amp;amp; Version" style="rounded=0;whiteSpace=wrap;html=1;strokeColor=#d79b00;fillColor=#ffe6cc;" vertex="1" parent="1">
          <mxGeometry x="525" y="560" width="120" height="20" as="geometry" />
        </mxCell>
        <mxCell id="U4IghfBn-vNY0UKqWCL6-12" value="" style="shape=flexArrow;endArrow=classic;html=1;rounded=0;fillColor=#1ba1e2;strokeColor=#006EAF;" edge="1" parent="1">
          <mxGeometry width="50" height="50" relative="1" as="geometry">
            <mxPoint x="584.5" y="370" as="sourcePoint" />
            <mxPoint x="585" y="420" as="targetPoint" />
          </mxGeometry>
        </mxCell>
        <mxCell id="U4IghfBn-vNY0UKqWCL6-13" value="" style="shape=flexArrow;endArrow=classic;html=1;rounded=0;fillColor=#1ba1e2;strokeColor=#006EAF;" edge="1" parent="1">
          <mxGeometry width="50" height="50" relative="1" as="geometry">
            <mxPoint x="584.66" y="510" as="sourcePoint" />
            <mxPoint x="585" y="560" as="targetPoint" />
          </mxGeometry>
        </mxCell>
        <mxCell id="U4IghfBn-vNY0UKqWCL6-14" value="" style="html=1;verticalLabelPosition=bottom;align=center;labelBackgroundColor=#ffffff;verticalAlign=top;strokeWidth=2;strokeColor=#d79b00;shadow=0;dashed=0;shape=mxgraph.ios7.icons.data;fillColor=#ffe6cc;" vertex="1" parent="1">
          <mxGeometry x="306" y="213" width="39" height="54" as="geometry" />
        </mxCell>
        <mxCell id="U4IghfBn-vNY0UKqWCL6-16" value="" style="rounded=0;whiteSpace=wrap;html=1;" vertex="1" parent="1">
          <mxGeometry x="60" y="370" width="310" height="260" as="geometry" />
        </mxCell>
        <mxCell id="U4IghfBn-vNY0UKqWCL6-17" value="Questions to Ask the Experts" style="rounded=0;whiteSpace=wrap;html=1;fillColor=#ffe6cc;strokeColor=#d79b00;" vertex="1" parent="1">
          <mxGeometry x="125" y="360" width="180" height="20" as="geometry" />
        </mxCell>
        <mxCell id="U4IghfBn-vNY0UKqWCL6-18" value="&lt;font style=&quot;font-size: 6px;&quot;&gt;- Who owns the data?&lt;/font&gt;&lt;div&gt;&lt;font style=&quot;font-size: 6px;&quot;&gt;- What Business Process it supports?&lt;/font&gt;&lt;/div&gt;&lt;div&gt;&lt;font style=&quot;font-size: 6px;&quot;&gt;- System &amp;amp; Data documentation&lt;/font&gt;&lt;/div&gt;&lt;div&gt;&lt;font style=&quot;font-size: 6px;&quot;&gt;- Data Model &amp;amp; Data Catalog&lt;/font&gt;&lt;/div&gt;" style="rounded=0;whiteSpace=wrap;html=1;" vertex="1" parent="1">
          <mxGeometry x="80" y="410" width="120" height="70" as="geometry" />
        </mxCell>
        <mxCell id="U4IghfBn-vNY0UKqWCL6-19" value="&lt;font style=&quot;font-size: 7px;&quot;&gt;Business Context &amp;amp; Ownership&lt;/font&gt;" style="rounded=0;whiteSpace=wrap;html=1;strokeColor=none;" vertex="1" parent="1">
          <mxGeometry x="86.25" y="400" width="107.5" height="20" as="geometry" />
        </mxCell>
        <mxCell id="U4IghfBn-vNY0UKqWCL6-20" value="&lt;span style=&quot;font-size: 6px;&quot;&gt;- Incremental VS. Full Loads?&lt;/span&gt;&lt;div&gt;&lt;span style=&quot;font-size: 6px;&quot;&gt;- Data Scope &amp;amp; Historical Needs&lt;/span&gt;&lt;/div&gt;&lt;div&gt;&lt;span style=&quot;font-size: 6px;&quot;&gt;- What is the expected size of the extracts?&lt;/span&gt;&lt;/div&gt;&lt;div&gt;&lt;span style=&quot;font-size: 6px;&quot;&gt;- Are there any data volume limitations?&lt;/span&gt;&lt;/div&gt;&lt;div&gt;&lt;span style=&quot;font-size: 6px;&quot;&gt;How to avoid impacting the source system&#39;s performance?&lt;/span&gt;&lt;/div&gt;&lt;div&gt;&lt;span style=&quot;font-size: 6px;&quot;&gt;- authentication and authorization (tokens, SSH keys, VPN, IP Whitelisting)&lt;/span&gt;&lt;/div&gt;" style="rounded=0;whiteSpace=wrap;html=1;" vertex="1" parent="1">
          <mxGeometry x="235" y="410" width="120" height="140" as="geometry" />
        </mxCell>
        <mxCell id="U4IghfBn-vNY0UKqWCL6-21" value="&lt;font style=&quot;font-size: 7px;&quot;&gt;Extract &amp;amp; Load&lt;/font&gt;" style="rounded=0;whiteSpace=wrap;html=1;strokeColor=none;" vertex="1" parent="1">
          <mxGeometry x="241.25" y="400" width="107.5" height="20" as="geometry" />
        </mxCell>
        <mxCell id="U4IghfBn-vNY0UKqWCL6-22" value="&lt;span style=&quot;font-size: 6px;&quot;&gt;- How is data stored? (SQL Server, Oracle, AWS, Azure)&lt;/span&gt;&lt;div&gt;&lt;span style=&quot;font-size: 6px;&quot;&gt;- What are the integration capabilities? (API, Kafka, File Extract Direct DB)&lt;/span&gt;&lt;/div&gt;" style="rounded=0;whiteSpace=wrap;html=1;" vertex="1" parent="1">
          <mxGeometry x="80" y="510" width="120" height="90" as="geometry" />
        </mxCell>
        <mxCell id="U4IghfBn-vNY0UKqWCL6-23" value="&lt;font style=&quot;font-size: 7px;&quot;&gt;Architecture &amp;amp; Tech Stack&lt;/font&gt;" style="rounded=0;whiteSpace=wrap;html=1;strokeColor=none;" vertex="1" parent="1">
          <mxGeometry x="86.25" y="500" width="107.5" height="20" as="geometry" />
        </mxCell>
        <mxCell id="U4IghfBn-vNY0UKqWCL6-24" value="" style="shape=flexArrow;endArrow=classic;html=1;rounded=0;fillColor=#1ba1e2;strokeColor=#006EAF;" edge="1" parent="1">
          <mxGeometry width="50" height="50" relative="1" as="geometry">
            <mxPoint x="390" y="329.58000000000004" as="sourcePoint" />
            <mxPoint x="460" y="329.58000000000004" as="targetPoint" />
          </mxGeometry>
        </mxCell>
      </root>
    </mxGraphModel>
  </diagram>
</mxfile>
